# xmcd
#
# Track frame offsets: 
#        150
#        3648
#        20177
#        35491
#        48915
#        66943
#        90887
#        100795
#        106621
#        121595
#        142120
#        160018
#        179555
#        197035
#        212251
#        224231
#        243361
#        260928
#
# Disc length: 3715 seconds
#
# Revision: 0
# Processed by: cddbd v1.4PL0 Copyright (c) Steve Scherf et al.
# Submitted via: ExactAudioCopy v0.90b4
#
DISCID=fe0e8112
DTITLE=Telmo Pires - Canto
DYEAR=2001
DGENRE=Chanson
TTITLE0=Lisbon Intro
TTITLE1=Triste Sina
TTITLE2=Années De Solitude
TTITLE3=Herzensammler
TTITLE4=No Teu Poema
TTITLE5=Wild Is The Wind
TTITLE6=Der Chansonnier
TTITLE7=Nachts
TTITLE8=Fado É Saudade
TTITLE9=Les Moulin Des Mon Coeur
TTITLE10=Jurame
TTITLE11=L'Aigle Noir
TTITLE12=Ich Werde Müde
TTITLE13=Foi Assim
TTITLE14=Mein Schatz
TTITLE15=Nicht Stör'n
TTITLE16=Lusitana Paixão
TTITLE17=Wind Beneath My Wings
EXTD=
EXTT0=
EXTT1=
EXTT2=
EXTT3=
EXTT4=
EXTT5=
EXTT6=
EXTT7=
EXTT8=
EXTT9=
EXTT10=
EXTT11=
EXTT12=
EXTT13=
EXTT14=
EXTT15=
EXTT16=
EXTT17=
PLAYORDER=
